M48
;DRILL file {KiCad 4.0.7} date 12/12/17 09:57:03
;FORMAT={-:-/ absolute / inch / decimal}
FMAT,2
INCH,TZ
T1C0.012
T2C0.031
T3C0.032
T4C0.039
T5C0.040
T6C0.065
T7C0.070
T8C0.128
T9C0.126
%
G90
G05
M72
T1
X4.21Y-2.7
X4.3Y-4.29
X4.32Y-3.35
X4.41Y-3.72
X4.505Y-3.0225
X4.55Y-2.76
X4.71Y-3.88
X4.76Y-3.05
X4.78Y-3.95
X4.98Y-3.16
X5.42Y-2.59
X7.2Y-2.26
X7.21Y-2.22
T2
X4.1Y-4.85
X4.1Y-5.35
X4.2Y-4.85
X4.2Y-5.35
X4.3Y-4.85
X4.3Y-5.35
X4.4Y-4.85
X4.4Y-5.35
X4.5Y-4.85
X4.5Y-5.35
X4.6Y-4.85
X4.6Y-5.35
X4.7Y-4.85
X4.7Y-5.35
X4.8Y-4.85
X4.8Y-5.35
X4.82Y-3.38
X4.9Y-4.85
X4.9Y-5.35
X5.Y-4.85
X5.Y-5.35
X5.0169Y-3.38
X5.1Y-4.85
X5.1Y-5.35
X5.2Y-4.85
X5.2Y-5.35
X5.3Y-4.85
X5.3Y-5.35
X5.4Y-4.85
X5.4Y-5.35
X5.5Y-4.85
X5.5Y-5.35
X5.6Y-4.85
X5.6Y-5.35
X6.02Y-4.86
X6.02Y-5.36
X6.12Y-4.86
X6.12Y-5.36
X6.22Y-4.86
X6.22Y-5.36
X6.32Y-4.86
X6.32Y-5.36
X6.42Y-4.86
X6.42Y-5.36
X6.52Y-4.86
X6.52Y-5.36
X6.62Y-4.86
X6.62Y-5.36
X6.72Y-4.86
X6.72Y-5.36
X6.82Y-4.86
X6.82Y-5.36
X6.92Y-4.86
X6.92Y-5.36
X7.02Y-4.86
X7.02Y-5.36
X7.12Y-4.86
X7.12Y-5.36
X7.22Y-4.86
X7.22Y-5.36
X7.32Y-4.86
X7.32Y-5.36
X7.42Y-4.86
X7.42Y-5.36
X7.52Y-4.86
X7.52Y-5.36
T3
X4.52Y-2.41
X4.57Y-2.51
X4.62Y-2.41
X4.67Y-2.51
X4.72Y-2.41
X4.77Y-2.51
X5.555Y-2.41
X5.605Y-2.51
X5.655Y-2.41
X5.705Y-2.51
X5.755Y-2.41
X5.805Y-2.51
X7.Y-2.135
X7.Y-2.235
X7.Y-2.335
X7.005Y-3.71
X7.005Y-3.81
X7.005Y-3.91
X7.1Y-2.085
X7.1Y-2.185
X7.1Y-2.285
X7.105Y-3.66
X7.105Y-3.76
X7.105Y-3.86
T4
X4.3Y-5.05
X4.3Y-5.15
X4.4Y-5.05
X4.4Y-5.15
X4.41Y-4.19
X4.41Y-4.29
X4.5Y-5.05
X4.5Y-5.15
X4.51Y-4.19
X4.51Y-4.29
X4.6Y-5.05
X4.6Y-5.15
X4.61Y-4.19
X4.61Y-4.29
X4.7Y-5.05
X4.7Y-5.15
X4.71Y-4.19
X4.71Y-4.29
X4.81Y-4.19
X4.81Y-4.29
X6.1Y-2.09
X6.1Y-2.19
X6.1Y-2.29
X6.1Y-2.39
X6.22Y-5.06
X6.22Y-5.16
X6.32Y-5.06
X6.32Y-5.16
X6.42Y-5.06
X6.42Y-5.16
X6.52Y-5.06
X6.52Y-5.16
X6.62Y-5.06
X6.62Y-5.16
X6.71Y-2.67
X6.81Y-2.67
X6.91Y-2.67
X7.29Y-2.67
X7.39Y-2.67
T5
X4.21Y-2.9
X4.21Y-3.
X4.21Y-3.1
X4.21Y-3.2
X4.21Y-3.3
X4.21Y-3.4
X4.21Y-3.5
X4.41Y-2.85
X4.41Y-2.95
X4.41Y-3.05
X4.41Y-3.15
X4.41Y-3.25
X4.41Y-3.35
X4.41Y-3.45
X4.41Y-3.55
X5.49Y-2.805
X5.49Y-2.905
X5.49Y-3.005
X5.49Y-3.105
X5.49Y-3.205
X5.49Y-3.305
X5.49Y-3.405
X5.49Y-3.505
X5.49Y-3.605
X5.49Y-3.705
X5.49Y-3.805
X5.49Y-3.905
X5.49Y-4.005
X5.49Y-4.105
X5.49Y-4.205
X6.09Y-2.805
X6.09Y-2.905
X6.09Y-3.005
X6.09Y-3.105
X6.09Y-3.205
X6.09Y-3.305
X6.09Y-3.405
X6.09Y-3.505
X6.09Y-3.605
X6.09Y-3.705
X6.09Y-3.805
X6.09Y-3.905
X6.09Y-4.005
X6.09Y-4.105
X6.09Y-4.205
T6
X4.1141Y-2.46
X4.27Y-2.46
X5.0841Y-2.45
X5.1341Y-3.82
X5.24Y-2.45
X5.29Y-3.82
X7.0405Y-4.1573
X7.0405Y-4.3132
X7.06Y-2.8741
X7.06Y-3.03
X7.3418Y-4.1636
X7.3418Y-4.3196
X7.42Y-2.87
X7.42Y-3.0259
T7
X5.49Y-2.705
X5.49Y-4.305
X6.09Y-2.705
X6.09Y-4.305
T8
X4.445Y-2.16
X4.845Y-2.16
X5.48Y-2.16
X5.88Y-2.16
X6.75Y-2.01
X6.75Y-2.41
X6.755Y-3.585
X6.755Y-3.985
T9
X4.1Y-3.85
X5.8Y-3.15
T0
M30
