G04 #@! TF.FileFunction,Soldermask,Top*
%FSLAX46Y46*%
G04 Gerber Fmt 4.6, Leading zero omitted, Abs format (unit mm)*
G04 Created by KiCad (PCBNEW 4.0.7) date 12/12/17 11:06:34*
%MOMM*%
%LPD*%
G01*
G04 APERTURE LIST*
%ADD10C,0.100000*%
%ADD11R,1.600000X1.600000*%
%ADD12O,1.600000X1.600000*%
%ADD13R,1.700000X1.700000*%
%ADD14C,1.700000*%
%ADD15R,1.550000X0.600000*%
%ADD16R,1.800000X1.200000*%
%ADD17C,2.540000*%
%ADD18O,2.032000X1.727200*%
%ADD19C,1.520000*%
%ADD20C,3.429000*%
%ADD21O,1.700000X1.700000*%
%ADD22R,1.400000X0.600000*%
%ADD23R,2.000000X1.000000*%
%ADD24R,2.350000X3.000000*%
%ADD25O,2.350000X3.000000*%
%ADD26C,1.600000*%
%ADD27R,2.650000X1.750000*%
%ADD28O,2.921000X1.778000*%
%ADD29R,1.200000X0.750000*%
%ADD30R,0.750000X1.200000*%
%ADD31C,3.200000*%
%ADD32R,3.000000X2.350000*%
%ADD33O,3.000000X2.350000*%
G04 APERTURE END LIST*
D10*
D11*
X173228000Y-136144000D03*
D12*
X191008000Y-123444000D03*
X175768000Y-136144000D03*
X188468000Y-123444000D03*
X178308000Y-136144000D03*
X185928000Y-123444000D03*
X180848000Y-136144000D03*
X183388000Y-123444000D03*
X183388000Y-136144000D03*
X180848000Y-123444000D03*
X185928000Y-136144000D03*
X178308000Y-123444000D03*
X188468000Y-136144000D03*
X175768000Y-123444000D03*
X191008000Y-136144000D03*
X173228000Y-123444000D03*
D11*
X152908000Y-136144000D03*
D12*
X170688000Y-123444000D03*
X155448000Y-136144000D03*
X168148000Y-123444000D03*
X157988000Y-136144000D03*
X165608000Y-123444000D03*
X160528000Y-136144000D03*
X163068000Y-123444000D03*
X163068000Y-136144000D03*
X160528000Y-123444000D03*
X165608000Y-136144000D03*
X157988000Y-123444000D03*
X168148000Y-136144000D03*
X155448000Y-123444000D03*
X170688000Y-136144000D03*
X152908000Y-123444000D03*
D13*
X157988000Y-131064000D03*
D14*
X157988000Y-128524000D03*
X160528000Y-131064000D03*
X160528000Y-128524000D03*
X163068000Y-131064000D03*
X163068000Y-128524000D03*
X165608000Y-131064000D03*
X165608000Y-128524000D03*
X168148000Y-131064000D03*
X168148000Y-128524000D03*
D15*
X191008000Y-130524000D03*
X191008000Y-129524000D03*
X191008000Y-128524000D03*
X191008000Y-127524000D03*
D16*
X188483000Y-131824000D03*
X188483000Y-126224000D03*
D17*
X139446000Y-109347000D03*
D18*
X139446000Y-71247000D03*
X139446000Y-73787000D03*
X139446000Y-76327000D03*
X139446000Y-78867000D03*
X139446000Y-81407000D03*
X139446000Y-83947000D03*
X139446000Y-86487000D03*
X139446000Y-89027000D03*
X139446000Y-91567000D03*
X139446000Y-94107000D03*
X139446000Y-96647000D03*
X139446000Y-99187000D03*
X139446000Y-101727000D03*
X139446000Y-104267000D03*
X139446000Y-106807000D03*
X154686000Y-71247000D03*
X154686000Y-73787000D03*
X154686000Y-76327000D03*
X154686000Y-78867000D03*
X154686000Y-81407000D03*
X154686000Y-83947000D03*
X154686000Y-86487000D03*
X154686000Y-89027000D03*
X154686000Y-91567000D03*
X154686000Y-94107000D03*
X154686000Y-96647000D03*
X154686000Y-99187000D03*
X154686000Y-101727000D03*
X154686000Y-104267000D03*
X154686000Y-106807000D03*
D17*
X139446000Y-68707000D03*
X154686000Y-109347000D03*
X154686000Y-68707000D03*
D19*
X143637000Y-61214000D03*
X146177000Y-61214000D03*
X141097000Y-61214000D03*
X147447000Y-63754000D03*
X144907000Y-63754000D03*
X142367000Y-63754000D03*
D20*
X139192000Y-54864000D03*
X149352000Y-54864000D03*
D19*
X117348000Y-61214000D03*
X119888000Y-61214000D03*
X114808000Y-61214000D03*
X121158000Y-63754000D03*
X118618000Y-63754000D03*
X116078000Y-63754000D03*
D20*
X112903000Y-54864000D03*
X123063000Y-54864000D03*
D13*
X112014000Y-108966000D03*
D14*
X112014000Y-106426000D03*
X114554000Y-108966000D03*
X114554000Y-106426000D03*
X117094000Y-108966000D03*
X117094000Y-106426000D03*
X119634000Y-108966000D03*
X119634000Y-106426000D03*
X122174000Y-108966000D03*
X122174000Y-106426000D03*
D13*
X185166000Y-67818000D03*
D21*
X187706000Y-67818000D03*
D13*
X170434000Y-67818000D03*
D21*
X172974000Y-67818000D03*
X175514000Y-67818000D03*
D22*
X184073000Y-58470000D03*
X184073000Y-57470000D03*
X184073000Y-56470000D03*
X184073000Y-55470000D03*
X184073000Y-54470000D03*
X184073000Y-53470000D03*
D23*
X187198000Y-52070000D03*
X187198000Y-59870000D03*
D19*
X177800000Y-56769000D03*
X177800000Y-54229000D03*
X177800000Y-59309000D03*
X180340000Y-52959000D03*
X180340000Y-55499000D03*
X180340000Y-58039000D03*
D20*
X171450000Y-61214000D03*
X171450000Y-51054000D03*
D13*
X154940000Y-60706000D03*
D21*
X154940000Y-58166000D03*
X154940000Y-55626000D03*
X154940000Y-53086000D03*
D19*
X177927000Y-96774000D03*
X177927000Y-94234000D03*
X177927000Y-99314000D03*
X180467000Y-92964000D03*
X180467000Y-95504000D03*
X180467000Y-98044000D03*
D20*
X171577000Y-101219000D03*
X171577000Y-91059000D03*
D22*
X184785000Y-99155000D03*
X184785000Y-98155000D03*
X184785000Y-97155000D03*
X184785000Y-96155000D03*
X184785000Y-95155000D03*
X184785000Y-94155000D03*
D23*
X187910000Y-92755000D03*
X187910000Y-100555000D03*
D24*
X133096000Y-62230000D03*
D25*
X129136000Y-62230000D03*
D24*
X108458000Y-62484000D03*
D25*
X104498000Y-62484000D03*
D11*
X122428000Y-85852000D03*
D26*
X127428000Y-85852000D03*
D27*
X118382000Y-75438000D03*
X122682000Y-75438000D03*
X126256000Y-75438000D03*
X130556000Y-75438000D03*
X118364000Y-78740000D03*
X122664000Y-78740000D03*
X126256000Y-78740000D03*
X130556000Y-78740000D03*
X118382000Y-72136000D03*
X122682000Y-72136000D03*
X126256000Y-72136000D03*
X130556000Y-72136000D03*
X118364000Y-68834000D03*
X122664000Y-68834000D03*
X126238000Y-68834000D03*
X130538000Y-68834000D03*
D24*
X130406000Y-97028000D03*
D25*
X134366000Y-97028000D03*
D28*
X112014000Y-90170000D03*
X106934000Y-88900000D03*
X112014000Y-87630000D03*
X106934000Y-86360000D03*
X112014000Y-85090000D03*
X106934000Y-83820000D03*
X112014000Y-82550000D03*
X106934000Y-81280000D03*
X112014000Y-80010000D03*
X106934000Y-78740000D03*
X112014000Y-77470000D03*
X106934000Y-76200000D03*
X112014000Y-74930000D03*
X106934000Y-73660000D03*
X112014000Y-72390000D03*
D29*
X110490000Y-80772000D03*
X108590000Y-80772000D03*
D30*
X109474000Y-86492000D03*
X109474000Y-88392000D03*
D31*
X104140000Y-97790000D03*
X147320000Y-80010000D03*
D32*
X178829081Y-105595903D03*
D33*
X178829081Y-109555903D03*
D32*
X179324000Y-73002000D03*
D33*
X179324000Y-76962000D03*
D32*
X186480616Y-109716622D03*
D33*
X186480616Y-105756622D03*
D32*
X188468000Y-76858000D03*
D33*
X188468000Y-72898000D03*
D13*
X109220000Y-130810000D03*
D14*
X109220000Y-128270000D03*
X111760000Y-130810000D03*
X111760000Y-128270000D03*
X114300000Y-130810000D03*
X114300000Y-128270000D03*
X116840000Y-130810000D03*
X116840000Y-128270000D03*
X119380000Y-130810000D03*
X119380000Y-128270000D03*
D11*
X104140000Y-135890000D03*
D12*
X121920000Y-123190000D03*
X106680000Y-135890000D03*
X119380000Y-123190000D03*
X109220000Y-135890000D03*
X116840000Y-123190000D03*
X111760000Y-135890000D03*
X114300000Y-123190000D03*
X114300000Y-135890000D03*
X111760000Y-123190000D03*
X116840000Y-135890000D03*
X109220000Y-123190000D03*
X119380000Y-135890000D03*
X106680000Y-123190000D03*
X121920000Y-135890000D03*
X104140000Y-123190000D03*
D11*
X124460000Y-135890000D03*
D12*
X142240000Y-123190000D03*
X127000000Y-135890000D03*
X139700000Y-123190000D03*
X129540000Y-135890000D03*
X137160000Y-123190000D03*
X132080000Y-135890000D03*
X134620000Y-123190000D03*
X134620000Y-135890000D03*
X132080000Y-123190000D03*
X137160000Y-135890000D03*
X129540000Y-123190000D03*
X139700000Y-135890000D03*
X127000000Y-123190000D03*
X142240000Y-135890000D03*
X124460000Y-123190000D03*
D15*
X142240000Y-130270000D03*
X142240000Y-129270000D03*
X142240000Y-128270000D03*
X142240000Y-127270000D03*
D16*
X139715000Y-131570000D03*
X139715000Y-125970000D03*
M02*
